<svg enable-background="new 0 0 48 48" viewBox="0 0 48 48" xmlns="http://www.w3.org/2000/svg"><path d="m4 28v-20c0-2.2 1.8-4 4-4h28c2.2 0 4 1.8 4 4v20c0 2.2-1.8 4-4 4h-28c-2.2 0-4-1.8-4-4z" fill="#546e7a"/><path d="m36 7h-28c-.6 0-1 .4-1 1v20c0 .6.4 1 1 1h28c.6 0 1-.4 1-1v-20c0-.6-.4-1-1-1z" fill="#bbdefb"/><path d="m38 33h-32c-2.2 0-4-1.8-4-4h40c0 2.2-1.8 4-4 4z" fill="#37474f"/><path d="m24 40v-24c0-2.2 1.8-4 4-4h12c2.2 0 4 1.8 4 4v24c0 2.2-1.8 4-4 4h-12c-2.2 0-4-1.8-4-4z" fill="#e38939"/><path d="m40 15h-12c-.6 0-1 .4-1 1v22c0 .6.4 1 1 1h12c.6 0 1-.4 1-1v-22c0-.6-.4-1-1-1z" fill="#fff3e0"/><circle cx="34" cy="41.5" fill="#a6642a" r="1.5"/></svg>