<svg enable-background="new 0 0 48 48" viewBox="0 0 48 48" xmlns="http://www.w3.org/2000/svg"><path d="m37 42h-32v-10h32c2.8 0 5 2.2 5 5 0 2.8-2.2 5-5 5z" fill="#b0bec5"/><g fill="#37474f"><path d="m10 34c-1.7 0-3 1.3-3 3s1.3 3 3 3 3-1.3 3-3-1.3-3-3-3zm0 4c-.6 0-1-.4-1-1s.4-1 1-1 1 .4 1 1-.4 1-1 1z"/><path d="m19 34c-1.7 0-3 1.3-3 3s1.3 3 3 3 3-1.3 3-3-1.3-3-3-3zm0 4c-.6 0-1-.4-1-1s.4-1 1-1 1 .4 1 1-.4 1-1 1z"/><path d="m37 34c-1.7 0-3 1.3-3 3s1.3 3 3 3 3-1.3 3-3-1.3-3-3-3zm0 4c-.6 0-1-.4-1-1s.4-1 1-1 1 .4 1 1-.4 1-1 1z"/><path d="m28 34c-1.7 0-3 1.3-3 3s1.3 3 3 3 3-1.3 3-3-1.3-3-3-3zm0 4c-.6 0-1-.4-1-1s.4-1 1-1 1 .4 1 1-.4 1-1 1z"/></g><path d="m35 31h-24c-1.1 0-2-.9-2-2v-22c0-1.1.9-2 2-2h24c1.1 0 2 .9 2 2v22c0 1.1-.9 2-2 2z" fill="#ff9800"/><path d="m26.5 13h-7c-.8 0-1.5-.7-1.5-1.5 0-.8.7-1.5 1.5-1.5h7c.8 0 1.5.7 1.5 1.5 0 .8-.7 1.5-1.5 1.5z" fill="#8a5100"/><path d="m37 31h-32v2h32c2.2 0 4 1.8 4 4s-1.8 4-4 4h-32v2h32c3.3 0 6-2.7 6-6s-2.7-6-6-6z" fill="#607d8b"/></svg>